<?xml version="1.0" encoding="UTF-8" standalone="no"?>
<svg
   xmlns:dc="http://purl.org/dc/elements/1.1/"
   xmlns:cc="http://creativecommons.org/ns#"
   xmlns:rdf="http://www.w3.org/1999/02/22-rdf-syntax-ns#"
   xmlns:svg="http://www.w3.org/2000/svg"
   xmlns="http://www.w3.org/2000/svg"
   version="1.1"
   id="svg2"
   viewBox="0 0 354.33071 214.14331"
   height="60.436001mm"
   width="100mm">
  <defs
     id="defs4" />
  <metadata
     id="metadata7">
    <rdf:RDF>
      <cc:Work
         rdf:about="">
        <dc:format>image/svg+xml</dc:format>
        <dc:type
           rdf:resource="http://purl.org/dc/dcmitype/StillImage" />
        <dc:title></dc:title>
      </cc:Work>
    </rdf:RDF>
  </metadata>
  <g
     transform="translate(0,-838.2189)"
     id="layer1">
    <path
       id="Dzz"
       d="m 198.77541,838.21891 0,19.96687 108.17692,0 -15.18712,18.80656 -77.91164,0 0,19.96685 61.78802,0 -79.56964,98.53561 0,18.088 31.78191,0 -16.70376,20.6854 0,18.088 143.18061,0 0,-19.9669 -113.5809,0 15.18711,-18.8065 83.31563,0 0,-19.96688 -67.19201,0 79.56965,-98.53561 0,-18.08797 -31.78192,0 16.70378,-20.68546 0,-18.08797 -137.77664,0 z M 0,838.22491 l 0,214.13729 57.64743,0 c 31.80507,0 55.65979,-2.2956 71.56233,-6.8853 15.90254,-4.6853 29.5317,-12.5741 40.89066,-23.6658 9.93906,-9.6574 17.32436,-20.7949 22.15191,-33.41651 4.82755,-12.71722 7.24166,-27.15803 7.24166,-43.3175 0,-15.96824 -2.41411,-30.263 -7.24166,-42.88459 -4.82755,-12.62156 -12.21285,-23.75905 -22.15191,-33.41649 -11.26432,-11.09169 -24.80008,-18.9347 -40.60795,-23.5244 -15.71321,-4.68528 -39.66134,-7.02667 -71.84504,-7.02667 l -57.64743,0 z m 54.66714,41.73604 19.59276,0 c 22.43393,0 39.51932,5.54735 51.25689,16.63906 11.73759,11.0917 17.60786,27.24987 17.60786,48.47708 0,21.32285 -5.91698,37.57838 -17.74921,48.76569 -11.73761,11.18732 -28.77628,16.78042 -51.11554,16.78042 l -19.59276,0 0,-130.66225 z m 249.05752,16.99835 18.30582,0 -78.05301,96.65672 -18.30581,0 78.053,-96.65672 z"
       style="font-style:normal;font-weight:normal;font-size:medium;line-height:125%;font-family:Sans;letter-spacing:0px;word-spacing:0px;fill:#ffcc00;fill-opacity:1;stroke:none;stroke-width:1px;stroke-linecap:butt;stroke-linejoin:miter;stroke-opacity:1" />
  </g>
</svg>
